<?xml version="1.0" encoding="UTF-8" standalone="no"?>
<!DOCTYPE svg PUBLIC "-//W3C//DTD SVG 1.1//EN" "http://www.w3.org/Graphics/SVG/1.1/DTD/svg11.dtd">
<svg width="100%" height="100%" viewBox="0 0 150 150" version="1.1" xmlns="http://www.w3.org/2000/svg" xmlns:xlink="http://www.w3.org/1999/xlink" xml:space="preserve" xmlns:serif="http://www.serif.com/" style="fill-rule:evenodd;clip-rule:evenodd;stroke-linejoin:round;stroke-miterlimit:2;">
    <g transform="matrix(1.32558,0,0,1.32558,-17.7904,-24.4183)">
        <g transform="matrix(1,0,0,1,-15.6772,-4.70799)">
            <path d="M86.462,39.149L40.118,39.149L80.677,79.708L40.118,120.267L86.443,120.267L121.236,79.708L86.462,39.149Z" style="fill:none;stroke:rgb(7,7,255);stroke-width:11.32px;stroke-linecap:round;stroke-miterlimit:1.5;"/>
        </g>
        <g transform="matrix(1,0,0,1,-10.6772,-4.70799)">
            <path d="M86.462,39.149L40.118,39.149L80.677,79.708L40.118,120.267L86.443,120.267L121.236,79.708L86.462,39.149Z" style="fill:none;stroke:rgb(127,7,255);stroke-width:11.32px;stroke-linecap:round;stroke-miterlimit:1.5;"/>
        </g>
        <g transform="matrix(1,0,0,1,-5.67722,-4.70799)">
            <path d="M86.462,39.149L40.118,39.149L80.677,79.708L40.118,120.267L86.443,120.267L121.236,79.708L86.462,39.149Z" style="fill:none;stroke:white;stroke-width:11.32px;stroke-linecap:round;stroke-miterlimit:1.5;"/>
        </g>
    </g>
</svg>
