<?xml version="1.0" encoding="UTF-8" standalone="no"?>
<!DOCTYPE svg PUBLIC "-//W3C//DTD SVG 1.1//EN" "http://www.w3.org/Graphics/SVG/1.1/DTD/svg11.dtd">
<svg width="100%" height="100%" viewBox="0 0 150 150" version="1.1" xmlns="http://www.w3.org/2000/svg" xmlns:xlink="http://www.w3.org/1999/xlink" xml:space="preserve" xmlns:serif="http://www.serif.com/" style="fill-rule:evenodd;clip-rule:evenodd;stroke-linejoin:round;stroke-miterlimit:2;">
    <g transform="matrix(1.12482,0,0,1.12482,-21.4749,-21.8125)">
        <path d="M146.726,55.591C146.726,38.77 133.069,25.113 116.248,25.113L55.291,25.113C38.469,25.113 24.813,38.77 24.813,55.591L24.813,116.548C24.813,133.369 38.469,147.026 55.291,147.026L116.248,147.026C133.069,147.026 146.726,133.369 146.726,116.548L146.726,55.591Z"/>
    </g>
    <g transform="matrix(1.21856,0,0,1.21856,-28.1925,20.3241)">
        <path d="M55.596,76.549L55.596,75.589L57.612,74.821C59.66,73.989 60.684,72.357 60.684,69.925L60.684,19.813C60.684,17.253 59.66,15.621 57.612,14.917L55.596,14.149L55.596,13.189L80.94,13.189C87.724,13.189 93.564,14.453 98.46,16.981C103.356,19.509 107.132,23.125 109.788,27.829C112.444,32.533 113.772,38.181 113.772,44.773C113.772,51.493 112.332,57.221 109.452,61.957C106.572,66.693 102.556,70.309 97.404,72.805C92.252,75.301 86.188,76.549 79.212,76.549L55.596,76.549ZM75.084,74.629L79.212,74.629C83.82,74.629 87.532,73.717 90.348,71.893C93.164,70.069 95.228,66.997 96.54,62.677C97.852,58.357 98.508,52.421 98.508,44.869C98.508,37.317 97.852,31.381 96.54,27.061C95.228,22.741 93.196,19.669 90.444,17.845C87.692,16.021 84.076,15.109 79.596,15.109L75.084,15.109L75.084,74.629Z" style="fill:white;fill-rule:nonzero;"/>
    </g>
</svg>
