<?xml version="1.0" encoding="UTF-8" standalone="no"?>
<!DOCTYPE svg PUBLIC "-//W3C//DTD SVG 1.1//EN" "http://www.w3.org/Graphics/SVG/1.1/DTD/svg11.dtd">
<svg width="100%" height="100%" viewBox="0 0 150 150" version="1.1" xmlns="http://www.w3.org/2000/svg" xmlns:xlink="http://www.w3.org/1999/xlink" xml:space="preserve" xmlns:serif="http://www.serif.com/" style="fill-rule:evenodd;clip-rule:evenodd;stroke-linejoin:round;stroke-miterlimit:2;">
    <path d="M144.952,26.034C144.952,14.452 135.548,5.048 123.966,5.048L26.034,5.048C14.452,5.048 5.048,14.452 5.048,26.034L5.048,123.966C5.048,135.548 14.452,144.952 26.034,144.952L123.966,144.952C135.548,144.952 144.952,135.548 144.952,123.966L144.952,26.034Z" style="fill:url(#_Radial1);"/>
    <g transform="matrix(1,0,0,1,5,0)">
        <g transform="matrix(1,0,0,1,-15.6772,-4.70799)">
            <path d="M86.462,39.149L40.118,39.149L80.677,79.708L40.118,120.267L86.443,120.267L121.236,79.708L86.462,39.149Z" style="fill:none;stroke:rgb(7,7,255);stroke-width:10px;stroke-linecap:round;stroke-miterlimit:1.5;"/>
        </g>
        <g transform="matrix(1,0,0,1,-10.6772,-4.70799)">
            <path d="M86.462,39.149L40.118,39.149L80.677,79.708L40.118,120.267L86.443,120.267L121.236,79.708L86.462,39.149Z" style="fill:none;stroke:rgb(127,7,255);stroke-width:10px;stroke-linecap:round;stroke-miterlimit:1.5;"/>
        </g>
        <g transform="matrix(1,0,0,1,-5.67722,-4.70799)">
            <path d="M86.462,39.149L40.118,39.149L80.677,79.708L40.118,120.267L86.443,120.267L121.236,79.708L86.462,39.149Z" style="fill:none;stroke:white;stroke-width:10px;stroke-linecap:round;stroke-miterlimit:1.5;"/>
        </g>
    </g>
    <defs>
        <radialGradient id="_Radial1" cx="0" cy="0" r="1" gradientUnits="userSpaceOnUse" gradientTransform="matrix(117.462,-123.44,123.44,117.462,75,184.143)"><stop offset="0" style="stop-color:rgb(87,0,255);stop-opacity:1"/><stop offset="0.46" style="stop-color:rgb(19,0,56);stop-opacity:1"/><stop offset="1" style="stop-color:black;stop-opacity:1"/></radialGradient>
    </defs>
</svg>
