<?xml version="1.0" encoding="UTF-8" standalone="no"?>
<!DOCTYPE svg PUBLIC "-//W3C//DTD SVG 1.1//EN" "http://www.w3.org/Graphics/SVG/1.1/DTD/svg11.dtd">
<svg width="100%" height="100%" viewBox="0 0 25 25" version="1.1" xmlns="http://www.w3.org/2000/svg" xmlns:xlink="http://www.w3.org/1999/xlink" xml:space="preserve" xmlns:serif="http://www.serif.com/" style="fill-rule:evenodd;clip-rule:evenodd;stroke-linejoin:round;stroke-miterlimit:2;">
    <path d="M11,11L4.318,11C3.644,11 3.097,11.547 3.097,12.221L3.097,12.779C3.097,13.453 3.644,14 4.318,14L11,14L11,20.682C11,21.356 11.547,21.903 12.221,21.903L12.779,21.903C13.453,21.903 14,21.356 14,20.682L14,14L20.682,14C21.356,14 21.903,13.453 21.903,12.779L21.903,12.221C21.903,11.547 21.356,11 20.682,11L14,11L14,4.318C14,3.644 13.453,3.097 12.779,3.097L12.221,3.097C11.547,3.097 11,3.644 11,4.318L11,11ZM12.5,11.48C13.063,11.48 13.52,11.937 13.52,12.5C13.52,13.063 13.063,13.52 12.5,13.52C11.937,13.52 11.48,13.063 11.48,12.5C11.48,11.937 11.937,11.48 12.5,11.48Z" style="fill:white;fill-opacity:0.1;"/>
</svg>
